<svg width="317" height="119" viewBox="0 0 317 119" fill="none" xmlns="http://www.w3.org/2000/svg">
<path d="M87.8644 77.0661C90.5325 81.7102 93.9791 83.0228 97.2525 83.0228C98.9728 83.0608 100.688 82.8232 102.336 82.3188V89.5083C100.446 89.9696 98.5108 90.2063 96.5677 90.2135C89.5877 90.2135 85.9749 87.5872 81.8362 81.2707L81.4897 80.7418L85.023 72.5911H85.2829L87.8644 77.0589M81.8362 55.4094L81.4897 55.9383L85.023 64.0009H85.2829L87.8644 59.7094C90.6191 55.1534 93.9791 53.5764 97.2525 53.5764C98.9728 53.5384 100.688 53.776 102.336 54.2804V47.0027C100.443 46.5712 98.5074 46.3641 96.5677 46.3857C89.5877 46.3857 85.9749 49.1002 81.8362 55.4167M77.7047 56.8174C73.9982 48.4855 69.3468 46.3845 62.8 46.3845C60.8533 46.4093 58.9166 46.6729 57.0318 47.1694V54.1826C58.4237 53.7375 59.8781 53.5291 61.3366 53.5656C65.1346 53.5656 67.8846 55.0544 70.3794 60.1392L74.3768 68.3298L70.3794 76.5288C67.887 81.6124 65.1227 83.0143 61.3366 83.0143C59.8732 83.0241 58.4185 82.7862 57.0318 82.3104V89.4117C58.9044 89.9698 60.8491 90.2369 62.8 90.2039C69.348 90.2039 74.0848 88.0098 77.7047 79.8591L82.8748 68.2899L77.7047 56.8089V56.8174ZM34.1146 65.2325C37.2467 65.2325 41.1812 65.1685 45.6592 64.8799V63.3911C45.6592 55.593 43.1668 52.87 35.4913 52.87H34.1146C26.3631 52.87 23.1752 56.2885 23.1752 63.7376V64.9391C26.7951 65.1468 30.5255 65.2277 34.1146 65.2277M35.8379 45.6841C48.2407 45.6841 53.6706 50.5045 53.6706 63.0349V70.9211C47.2093 71.5382 40.8346 71.706 34.9727 71.706C31.1165 71.706 27.1191 71.706 23.168 71.4343V72.9316C23.168 81.7863 28.0781 83.5408 37.8995 83.5408H38.5926C43.3151 83.4415 47.9831 82.4927 52.3805 80.7382V87.9277C49.9933 88.906 47.5112 89.6253 44.9756 90.0735C42.5627 90.5416 40.1136 90.7909 37.6574 90.8185H36.5393C21.4661 90.8185 15 85.6467 15 72.0586V64.4368C15 51.1143 21.2014 45.6781 34.3828 45.6781H35.8462M249.586 65.1335L244.762 64.2605C237.608 62.9479 235.972 62.5953 235.972 58.5683V58.2157C235.972 53.4834 240.363 52.8676 246.053 52.8676H246.573C251.72 52.9756 256.827 53.8295 261.737 55.4034V48.2996C256.708 46.5976 251.448 45.7113 246.148 45.6733H245.632C235.724 45.6733 227.885 48.2996 227.885 58.0358V59.6128C227.885 67.7635 232.537 70.1338 240.894 71.1819L245.804 71.799C253.382 72.765 254.846 73.993 254.846 77.8438V78.3727C254.846 83.1931 250.802 83.7207 244.678 83.7207H244.072C238.802 83.5351 233.594 82.4999 228.643 80.6537V88.1873C233.76 89.9039 239.104 90.8191 244.492 90.9018H244.925C256.037 90.9018 262.847 88.2755 262.847 78.7156V77.2255C262.847 68.7222 258.629 66.7926 249.579 65.1275M288.431 65.1275L283.607 64.2545C276.453 62.9419 274.817 62.5893 274.817 58.5622V58.2096C274.817 53.4774 279.208 52.8616 284.898 52.8616H285.418C290.565 52.9696 295.672 53.8234 300.582 55.3973V48.2996C295.554 46.5976 290.293 45.7113 284.993 45.6733H284.473C274.565 45.6733 266.727 48.2996 266.727 58.0358V59.6128C266.727 67.7635 271.378 70.1338 279.735 71.1819L284.645 71.799C292.223 72.765 293.688 73.993 293.688 77.8438V78.3727C293.688 83.1931 289.643 83.7207 283.52 83.7207H282.914C277.643 83.5351 272.435 82.4999 267.484 80.6537V88.1873C272.602 89.9039 277.946 90.8191 283.334 90.9018H283.767C294.88 90.9018 301.689 88.2755 301.689 78.7156V77.2255C301.689 68.7222 297.47 66.7926 288.421 65.1275M139.723 63.7268C139.723 55.8405 137.394 53.2939 129.729 53.2939H129.556C124.417 53.4741 119.53 55.6017 115.854 59.259V80.9942C119.837 82.4416 124.028 83.2099 128.257 83.2679C137.3 83.2679 139.715 80.8976 139.715 72.3146V63.7231L139.723 63.7268ZM132.319 45.9365C143.345 45.9365 147.822 50.7569 147.822 62.3261V71.7012C147.822 84.9355 142.91 90.6362 130.162 90.6362H129.47C124.832 90.5639 120.235 89.7339 115.856 88.1777V103.513H107.758V46.37H115.769V51.8038C120.381 48.0202 126.123 45.9482 132.048 45.9292H132.308M203.301 65.2084C206.433 65.2084 210.367 65.1444 214.845 64.8558V63.3669C214.845 55.5688 212.353 52.8459 204.677 52.8459H203.301C195.549 52.8459 192.361 56.2643 192.361 63.7135V64.915C195.981 65.1226 199.711 65.2035 203.301 65.2035M205.024 45.66C217.427 45.66 222.857 50.4804 222.857 63.0107V70.897C216.395 71.514 210.021 71.6818 204.159 71.6818C200.303 71.6818 196.305 71.6818 192.354 71.4102V72.9075C192.354 81.7622 197.265 83.5167 207.086 83.5167H207.777C212.5 83.4174 217.168 82.4685 221.565 80.714V87.9036C219.178 88.8808 216.696 89.6 214.16 90.0493C211.748 90.5174 209.299 90.7668 206.842 90.7943H205.724C190.651 90.7943 184.185 85.6226 184.185 72.0344V64.4126C184.185 51.0902 190.386 45.6539 203.568 45.6539H205.041M163.087 51.8992V46.3531H155.073V90.1858H163.171V59.3326C166.954 55.7398 171.949 53.7622 177.124 53.8083C178.747 53.8052 180.364 53.9825 181.949 54.3372V46.5378C180.57 46.1834 179.153 46.0057 177.731 46.0089C173.48 46.0089 168.917 47.2817 163.085 51.9016" fill="#FF6423"/>
<path d="M84.4772 29.6638C85.5546 29.0152 86.4418 28.0853 87.047 26.9704C87.6522 25.8555 87.9533 24.5963 87.9192 23.3231C87.9192 17.0779 83.5194 15.0118 75.7217 15.0118H62.1641V36.1554H68.8105V31.7359H75.7276C76.7058 31.7378 77.6833 31.6842 78.6556 31.5753C79.8781 32.885 80.8091 34.4471 81.3854 36.1554H88.2954C87.5454 33.7147 86.2368 31.4899 84.4772 29.6638ZM76.0386 26.8696H68.8105V19.8878H76.0433C79.5529 19.8878 81.5445 20.5278 81.5445 23.3304C81.5445 26.133 79.5565 26.8696 76.0386 26.8696Z" fill="#DC0032"/>
<path d="M56.8136 15.0118H50.1719V36.1566H56.8136V15.0118Z" fill="#DC0032"/>
<path d="M110.441 15.0118H103.799V36.1566H110.441V15.0118Z" fill="#DC0032"/>
<path d="M184.987 15.0118H178.346V36.1566H184.987V15.0118Z" fill="#DC0032"/>
<path d="M161.033 15.0124H147.883V36.1595H161.033C168.748 36.1595 174.445 32.6372 174.445 25.5829C174.445 18.5287 168.74 15.0063 161.033 15.0063V15.0124ZM160.226 31.1133H154.529V20.0562H160.226C165.184 20.0562 167.804 21.8493 167.804 25.5805C167.804 29.3117 165.184 31.1049 160.226 31.1049V31.1133Z" fill="#DC0032"/>
<path d="M136.116 24.6601C132.19 20.1163 127.101 16.7718 121.415 15H115.781V36.1484H122.167V21.8575C128.234 23.8668 133.853 30.1446 136.631 36.1496H142.501V15.0036H136.119L136.116 24.6601Z" fill="#DC0032"/>
<path d="M27.7133 15.0126C23.3219 20.0563 17.168 28.5488 17.168 36.1561H23.7943C23.8038 34.9914 23.9411 33.8314 24.2037 32.6978H39.277C39.5396 33.8314 39.677 34.9914 39.6865 36.1561H46.3175C46.3175 28.5415 40.1636 20.0551 35.7722 15.0114H27.7014L27.7133 15.0126ZM25.7217 28.2469C27.2907 24.8577 29.3199 21.7095 31.7499 18.8947C34.1728 21.7149 36.2013 24.862 37.778 28.2469H25.7301H25.7217Z" fill="#DC0032"/>
<path d="M207.462 15.0118H199.391C195 20.0556 188.846 28.5432 188.846 36.1566H195.472C195.482 34.9919 195.619 33.8319 195.881 32.6983H210.955C211.217 33.8319 211.355 34.9919 211.364 36.1566H217.99C217.99 28.542 211.837 20.0556 207.445 15.0118H207.462ZM197.404 28.2462C198.973 24.8569 201.002 21.7087 203.432 18.894C205.854 21.7144 207.882 24.8615 209.458 28.2462H197.413H197.404Z" fill="#DC0032"/>
<path d="M87.8644 77.0661C90.5325 81.7102 93.9791 83.0228 97.2525 83.0228C98.9728 83.0608 100.688 82.8232 102.336 82.3188V89.5083C100.446 89.9696 98.5108 90.2063 96.5677 90.2135C89.5877 90.2135 85.9749 87.5872 81.8362 81.2707L81.4897 80.7418L85.023 72.5911H85.2829L87.8644 77.0589M81.8362 55.4094L81.4897 55.9383L85.023 64.0009H85.2829L87.8644 59.7094C90.6191 55.1534 93.9791 53.5764 97.2525 53.5764C98.9728 53.5384 100.688 53.776 102.336 54.2804V47.0027C100.443 46.5712 98.5074 46.3641 96.5677 46.3857C89.5877 46.3857 85.9749 49.1002 81.8362 55.4167M77.7047 56.8174C73.9982 48.4855 69.3468 46.3845 62.8 46.3845C60.8533 46.4093 58.9166 46.6729 57.0318 47.1694V54.1826C58.4237 53.7375 59.8781 53.5291 61.3366 53.5656C65.1346 53.5656 67.8846 55.0544 70.3794 60.1392L74.3768 68.3298L70.3794 76.5288C67.887 81.6124 65.1227 83.0143 61.3366 83.0143C59.8732 83.0241 58.4185 82.7862 57.0318 82.3104V89.4117C58.9044 89.9698 60.8491 90.2369 62.8 90.2039C69.348 90.2039 74.0848 88.0098 77.7047 79.8591L82.8748 68.2899L77.7047 56.8089V56.8174ZM34.1146 65.2325C37.2467 65.2325 41.1812 65.1685 45.6592 64.8799V63.3911C45.6592 55.593 43.1668 52.87 35.4913 52.87H34.1146C26.3631 52.87 23.1752 56.2885 23.1752 63.7376V64.9391C26.7951 65.1468 30.5255 65.2277 34.1146 65.2277M35.8379 45.6841C48.2407 45.6841 53.6706 50.5045 53.6706 63.0349V70.9211C47.2093 71.5382 40.8346 71.706 34.9727 71.706C31.1165 71.706 27.1191 71.706 23.168 71.4343V72.9316C23.168 81.7863 28.0781 83.5408 37.8995 83.5408H38.5926C43.3151 83.4415 47.9831 82.4927 52.3805 80.7382V87.9277C49.9933 88.906 47.5112 89.6253 44.9756 90.0735C42.5627 90.5416 40.1136 90.7909 37.6574 90.8185H36.5393C21.4661 90.8185 15 85.6467 15 72.0586V64.4368C15 51.1143 21.2014 45.6781 34.3828 45.6781H35.8462M249.586 65.1335L244.762 64.2605C237.608 62.9479 235.972 62.5953 235.972 58.5683V58.2157C235.972 53.4834 240.363 52.8676 246.053 52.8676H246.573C251.72 52.9756 256.827 53.8295 261.737 55.4034V48.2996C256.708 46.5976 251.448 45.7113 246.148 45.6733H245.632C235.724 45.6733 227.885 48.2996 227.885 58.0358V59.6128C227.885 67.7635 232.537 70.1338 240.894 71.1819L245.804 71.799C253.382 72.765 254.846 73.993 254.846 77.8438V78.3727C254.846 83.1931 250.802 83.7207 244.678 83.7207H244.072C238.802 83.5351 233.594 82.4999 228.643 80.6537V88.1873C233.76 89.9039 239.104 90.8191 244.492 90.9018H244.925C256.037 90.9018 262.847 88.2755 262.847 78.7156V77.2255C262.847 68.7222 258.629 66.7926 249.579 65.1275M288.431 65.1275L283.607 64.2545C276.453 62.9419 274.817 62.5893 274.817 58.5622V58.2096C274.817 53.4774 279.208 52.8616 284.898 52.8616H285.418C290.565 52.9696 295.672 53.8234 300.582 55.3973V48.2996C295.554 46.5976 290.293 45.7113 284.993 45.6733H284.473C274.565 45.6733 266.727 48.2996 266.727 58.0358V59.6128C266.727 67.7635 271.378 70.1338 279.735 71.1819L284.645 71.799C292.223 72.765 293.688 73.993 293.688 77.8438V78.3727C293.688 83.1931 289.643 83.7207 283.52 83.7207H282.914C277.643 83.5351 272.435 82.4999 267.484 80.6537V88.1873C272.602 89.9039 277.946 90.8191 283.334 90.9018H283.767C294.88 90.9018 301.689 88.2755 301.689 78.7156V77.2255C301.689 68.7222 297.47 66.7926 288.421 65.1275M139.723 63.7268C139.723 55.8405 137.394 53.2939 129.729 53.2939H129.556C124.417 53.4741 119.53 55.6017 115.854 59.259V80.9942C119.837 82.4416 124.028 83.2099 128.257 83.2679C137.3 83.2679 139.715 80.8976 139.715 72.3146V63.7231L139.723 63.7268ZM132.319 45.9365C143.345 45.9365 147.822 50.7569 147.822 62.3261V71.7012C147.822 84.9355 142.91 90.6362 130.162 90.6362H129.47C124.832 90.5639 120.235 89.7339 115.856 88.1777V103.513H107.758V46.37H115.769V51.8038C120.381 48.0202 126.123 45.9482 132.048 45.9292H132.308M203.301 65.2084C206.433 65.2084 210.367 65.1444 214.845 64.8558V63.3669C214.845 55.5688 212.353 52.8459 204.677 52.8459H203.301C195.549 52.8459 192.361 56.2643 192.361 63.7135V64.915C195.981 65.1226 199.711 65.2035 203.301 65.2035M205.024 45.66C217.427 45.66 222.857 50.4804 222.857 63.0107V70.897C216.395 71.514 210.021 71.6818 204.159 71.6818C200.303 71.6818 196.305 71.6818 192.354 71.4102V72.9075C192.354 81.7622 197.265 83.5167 207.086 83.5167H207.777C212.5 83.4174 217.168 82.4685 221.565 80.714V87.9036C219.178 88.8808 216.696 89.6 214.16 90.0493C211.748 90.5174 209.299 90.7668 206.842 90.7943H205.724C190.651 90.7943 184.185 85.6226 184.185 72.0344V64.4126C184.185 51.0902 190.386 45.6539 203.568 45.6539H205.041M163.087 51.8992V46.3531H155.073V90.1858H163.171V59.3326C166.954 55.7398 171.949 53.7622 177.124 53.8083C178.747 53.8052 180.364 53.9825 181.949 54.3372V46.5378C180.57 46.1834 179.153 46.0057 177.731 46.0089C173.48 46.0089 168.917 47.2817 163.085 51.9016" fill="#FF6423"/>
</svg>
